Coordinates
version=1
nRows=26
nColumns=24
inDegrees=yes

Units are S.I. units (second, meters, Newtons, ...)
Angles are in degrees.

endheader
time	pelvis_tilt	pelvis_list	pelvis_rotation	pelvis_tx	pelvis_ty	pelvis_tz	hip_flexion_r	hip_adduction_r	hip_rotation_r	knee_angle_r	ankle_angle_r	subtalar_angle_r	mtp_angle_r	hip_flexion_l	hip_adduction_l	hip_rotation_l	knee_angle_l	ankle_angle_l	subtalar_angle_l	mtp_angle_l	lumbar_extension	lumbar_bending	lumbar_rotation
      1.16733333	     -4.39463909	     -2.26377639	     -2.40360014	     -0.04962869	      0.99590333	      0.28695170	    -15.49430860	      8.03171020	      2.49275122	     -1.57496076	     14.08089311	     -0.86180559	     -1.14214923	     24.38308179	     -1.21983649	     -2.92532296	      9.64346652	      3.32958759	     -4.81577853	     -1.88176807	      1.05862659	      1.05497276	      7.03730025
      1.17150000	     -4.38033021	     -2.09111981	     -2.47847059	     -0.04373590	      0.99508009	      0.28682623	    -15.64157075	      7.79730574	      2.30293620	     -2.02999334	     14.46568667	     -0.39103611	     -1.12238728	     24.50262403	     -0.96338289	     -3.00039911	      9.02715557	      3.53108722	     -4.74006013	     -1.77101403	      1.11690601	      0.83077270	      7.25268475
      1.17566667	     -4.36235980	     -1.90940320	     -2.54511581	     -0.03782243	      0.99428392	      0.28669996	    -15.78958327	      7.56070872	      2.18255098	     -2.48328314	     14.69435342	     -0.17161208	     -1.10158720	     24.62106858	     -0.69989405	     -3.02926253	      8.35359571	      3.67190527	     -4.78394509	     -1.58895335	      1.13922511	      0.60989607	      7.29895353
      1.17983333	     -4.32978434	     -1.72078636	     -2.59914606	     -0.03186086	      0.99353103	      0.28659920	    -15.97872465	      7.32852441	      2.19294188	     -2.88220083	     14.81526829	     -0.20943250	     -1.09249722	     24.72083418	     -0.43186370	     -2.99918847	      7.63935585	      3.74271515	     -4.93237651	     -1.53207487	      1.16496002	      0.35748313	      7.33092727
      1.18400000	     -4.30256687	     -1.50804970	     -2.65113860	     -0.02585782	      0.99281285	      0.28645339	    -16.10564306	      7.06289084	      2.02038260	     -3.40096797	     15.07423215	      0.10366108	     -1.04529764	     24.85120158	     -0.13891800	     -3.08075180	      6.83519936	      3.79006714	     -4.90496401	     -1.24362867	      1.19342374	      0.09481979	      7.49083388
      1.18816667	     -4.25709087	     -1.29727607	     -2.68137050	     -0.01981494	      0.99213882	      0.28633303	    -16.28673065	      6.81784566	      2.01615230	     -3.84318168	     15.15123185	      0.02463954	     -1.03253192	     24.95055758	      0.15269939	     -3.04235144	      6.02565583	      3.75626123	     -5.06620697	     -1.17187635	      1.20931056	     -0.18881356	      7.49757859
      1.19233333	     -4.20905927	     -1.07344584	     -2.70717890	     -0.01372309	      0.99150169	      0.28619024	    -16.45057501	      6.55938295	      1.97208801	     -4.32797613	     15.23984819	      0.00233511	     -1.01103796	     25.04865687	      0.45760967	     -3.02211682	      5.19056142	      3.65063356	     -5.21023044	     -1.06932380	      1.23863606	     -0.49324733	      7.53257694
      1.19650000	     -4.14979133	     -0.83947921	     -2.71120564	     -0.00760133	      0.99090951	      0.28597463	    -16.58214752	      6.28623626	      1.76381458	     -4.90740302	     15.43996794	      0.26600530	     -0.32452800	     25.14809524	      0.77981195	     -3.03968238	      4.32477923	      3.36690850	     -5.32357750	      2.26027181	      1.22058597	     -0.77059762	      7.48149779
      1.20066667	     -4.10785915	     -0.60511772	     -2.72729475	     -0.00143283	      0.99034176	      0.28582471	    -16.71766026	      6.02478225	      1.74332136	     -5.43246468	     15.41091075	      0.15224795	     -0.31517306	     25.25226632	      1.09115508	     -2.98898934	      3.45630565	      3.16595536	     -5.53228380	      2.28125570	      1.26823208	     -1.10080926	      7.56595803
      1.20483333	     -4.08332812	     -0.36877296	     -2.73660714	      0.00476067	      0.98978704	      0.28565089	    -16.80407542	      5.76099514	      1.66490828	     -6.02206345	     15.44555178	      0.18319597	     -0.24647982	     25.35338881	      1.40712172	     -2.81809993	      2.63165422	      2.72573408	     -5.99653056	      2.41799493	      1.32503619	     -1.40379458	      7.71837222
      1.20900000	     -4.01993550	     -0.12329106	     -2.72543687	      0.01099132	      0.98932520	      0.28544183	    -16.92699965	      5.49333030	      1.58111620	     -6.62041556	     15.42236642	      0.14324452	     -0.13359953	     25.40685280	      1.74063741	     -2.61858107	      1.81707734	      2.24635657	     -6.46577108	      2.63338604	      1.34104284	     -1.73162119	      7.71225411
      1.21316667	     -3.98559537	      0.12212174	     -2.70914814	      0.01724822	      0.98887198	      0.28521298	    -17.00026244	      5.22981381	      1.50503872	     -7.25291673	     15.35590072	      0.06923031	      0.00995809	     25.49380606	      2.07356578	     -2.40666298	      0.99226002	      1.71083997	     -6.95584285	      2.87848915	      1.39836543	     -2.05584297	      7.73314420
      1.21733333	     -3.95279353	      0.37401912	     -2.68186124	      0.02353353	      0.98847095	      0.28496010	    -17.05578332	      4.96398615	      1.42653359	     -7.91479354	     15.24550901	     -0.02567085	      0.17955376	     25.57654432	      2.41685361	     -2.16246599	      0.17712909	      1.11434822	     -7.48623416	      3.13369918	      1.45615889	     -2.38736149	      7.73132908
      1.22150000	     -3.88591829	      0.64146134	     -2.64448841	      0.02985285	      0.98816909	      0.28468984	    -17.13188592	      4.68429674	      1.32533727	     -8.60405444	     15.08062212	     -0.19369698	      0.22528035	     25.64531761	      2.77197930	     -2.05975759	     -0.69342204	      0.65327284	     -7.68516237	      3.19347295	      1.49246341	     -2.75925141	      7.72868087
      1.22566667	     -3.86768740	      0.88650720	     -2.60157210	      0.03615319	      0.98785044	      0.28437702	    -17.12264713	      4.42666027	      1.22125845	     -9.35784804	     14.91793454	     -0.22280082	      0.48346725	     25.70221658	      3.12220944	     -1.56525503	     -1.42327370	     -0.17444439	     -8.64000722	      3.48851311	      1.54557417	     -3.07355300	      7.71410278
      1.22983333	     -3.82913617	      1.15024413	     -2.55460316	      0.04249881	      0.98762773	      0.28404448	    -17.12208823	      4.14933235	      1.10509350	    -10.13069166	     14.68054161	     -0.31691350	      0.78459968	     25.76558211	      3.48488921	     -1.26852658	     -2.22192989	     -0.87143324	     -9.25314128	      3.78351980	      1.60413285	     -3.41622374	      7.67961400
      1.23400000	     -3.78782084	      1.41285502	     -2.49283715	      0.04884941	      0.98746048	      0.28367336	    -17.09334657	      3.87389767	      0.94881039	    -10.96177381	     14.40625786	     -0.40475343	      1.19369085	     25.81998840	      3.85293981	     -0.91968520	     -3.01507485	     -1.54127525	     -9.87306936	      4.12195036	      1.65017567	     -3.76385400	      7.64633847
      1.23816667	     -3.75875402	      1.67493877	     -2.43421079	      0.05520771	      0.98734562	      0.28328847	    -17.02459649	      3.59440138	      0.79027043	    -11.83777223	     14.08702628	     -0.47192637	      1.60994872	     25.89881187	      4.21479995	     -0.64300676	     -3.84133639	     -2.15712321	    -10.39010321	      4.40287595	      1.71865304	     -4.10521887	      7.60242817
      1.24233333	     -3.61039502	      1.97331746	     -2.38259553	      0.06160649	      0.98746916	      0.28292852	    -17.07931384	      3.27206170	      0.64097346	    -12.70429531	     13.61432723	     -0.67871901	      4.73182552	     25.82603754	      4.61036445	     -0.41540877	     -4.62441350	     -2.75721939	    -10.83141811	      6.08608496	      1.62432824	     -4.51752758	      7.59462410
      1.24650000	     -3.63631217	      2.20905215	     -2.29211624	      0.06795959	      0.98737858	      0.28244172	    -16.88467348	      3.01630432	      0.39408301	    -13.70115811	     13.20710676	     -0.63960642	      4.83108555	     25.99394570	      4.95070530	     -0.17999446	     -5.54096269	     -3.15270587	    -11.15042161	      6.08931974	      1.76626183	     -4.80578613	      7.51311219
      1.25066667	     -3.57549044	      2.47377059	     -2.21562166	      0.07433578	      0.98748867	      0.28197826	    -16.76194209	      2.71875428	      0.14213945	    -14.72852231	     12.75951189	     -0.62183579	      5.03081356	     26.02752634	      5.32172934	      0.09534734	     -6.37885243	     -3.60886836	    -11.60427446	      6.08807131	      1.78694154	     -5.14886134	      7.44258954
      1.25483333	     -3.43183630	      2.75004545	     -2.12853625	      0.08072753	      0.98778307	      0.28149783	    -16.71948093	      2.40497067	     -0.13049601	    -15.75518854	     12.18734335	     -0.64781258	      6.21451295	     25.95428113	      5.71359021	      0.38290470	     -7.19254751	     -4.01926883	    -12.06091419	      6.04331193	      1.68856650	     -5.52344926	      7.39852861
      1.25900000	     -3.41695315	      2.98859194	     -2.05212560	      0.08708376	      0.98792837	      0.28099980	    -16.47449338	      2.12009425	     -0.40758830	    -16.90568879	     11.63248313	     -0.60354617	      6.40712657	     26.06502460	      6.04250733	      0.49762746	     -8.11970431	     -4.18155668	    -12.17460567	      6.02679888	      1.77516871	     -5.81607016	      7.30532685
      1.26316667	     -3.28863218	      3.23406578	     -1.97843350	      0.09344986	      0.98830873	      0.28052379	    -16.34658586	      1.82267168	     -0.67892431	    -18.04113782	     10.94477327	     -0.64060935	      6.47186432	     26.02927798	      6.38009727	      0.59119007	     -9.00905639	     -4.29616371	    -12.29884172	      6.01816814	      1.72038508	     -6.14523240	      7.28069969
      1.26733333	     -3.20254785	      3.48256983	     -1.87190568	      0.09979342	      0.98864708	      0.27992511	    -16.11206400	      1.49814599	     -1.10824976	    -19.30006031	     10.34919529	     -0.38668985	      6.90882447	     26.01311599	      6.74751505	      0.82653565	     -9.85263892	     -4.44865787	    -12.56284115	      5.95550720	      1.68048743	     -6.45141534	      7.09566873
      1.27150000	     -3.06321090	      3.70821054	     -1.80310201	      0.10612953	      0.98915462	      0.27943418	    -15.93286654	      1.20100861	     -1.39581868	    -20.52119807	      9.50870226	     -0.42039650	      6.99323379	     25.93690530	      7.06258401	      0.89830534	    -10.70702724	     -4.44681606	    -12.66201320	      5.94098534	      1.60155043	     -6.75129542	      7.08681491
